<?xml version="1.0" standalone="no"?>
<svg xmlns="http://www.w3.org/2000/svg" xmlns:xlink="http://www.w3.org/1999/xlink" width="1382pt" height="932pt" viewBox="0.00 0.00 1382.41 932.00">
<g id="graph0" class="graph" transform="translate(4,928) scale(1)" data-name="TriggerApp">

<polygon fill="white" stroke="none" points="-4,4 -4,-928 1378.41,-928 1378.41,4 -4,4"/>
<!-- tc_buf -->
<g id="node1" class="node" pointer-events="visible" data-name="tc_buf">

<path fill="#b0e2ff" stroke="black" d="M673.75,-124.8C673.75,-124.8 618.25,-124.8 618.25,-124.8 612.25,-124.8 606.25,-118.8 606.25,-112.8 606.25,-112.8 606.25,-100.8 606.25,-100.8 606.25,-94.8 612.25,-88.8 618.25,-88.8 618.25,-88.8 673.75,-88.8 673.75,-88.8 679.75,-88.8 685.75,-94.8 685.75,-100.8 685.75,-100.8 685.75,-112.8 685.75,-112.8 685.75,-118.8 679.75,-124.8 673.75,-124.8"/>
<text text-anchor="start" x="626.94" y="-109.2" font-family="Times,serif" font-weight="bold" font-size="14.00">tc_buf</text>
<text text-anchor="start" x="614.12" y="-95.2" font-family="Times,serif" font-size="14.00">[TCBuffer]</text>
</g>
<!-- FragmentReceiver -->
<g id="node24" class="node" pointer-events="visible" data-name="FragmentReceiver">

<ellipse fill="orange" stroke="orange" stroke-dasharray="5,2" cx="598" cy="-18" rx="32.55" ry="18"/>
<text text-anchor="middle" x="598" y="-13.8" font-family="Times,serif" font-size="14.00">to FR</text>
</g>
<!-- tc_buf&#45;&gt;FragmentReceiver -->
<g id="edge1" class="edge" data-name="tc_buf-&gt;FragmentReceiver">

<path fill="none" stroke="orange" stroke-dasharray="5,2" d="M636.52,-88.65C629.72,-76.37 620.45,-59.59 612.7,-45.58"/>
<polygon fill="orange" stroke="orange" points="615.77,-43.91 607.87,-36.85 609.65,-47.29 615.77,-43.91"/>
<text text-anchor="middle" x="653.99" y="-58.2" font-family="Times,serif" font-size="14.00">fragments</text>
</g>
<!-- tctee_ttcm -->
<g id="node2" class="node" pointer-events="visible" data-name="tctee_ttcm">

<path fill="#b0e2ff" stroke="black" d="M795.17,-213.6C795.17,-213.6 740.83,-213.6 740.83,-213.6 734.83,-213.6 728.83,-207.6 728.83,-201.6 728.83,-201.6 728.83,-189.6 728.83,-189.6 728.83,-183.6 734.83,-177.6 740.83,-177.6 740.83,-177.6 795.17,-177.6 795.17,-177.6 801.17,-177.6 807.17,-183.6 807.17,-189.6 807.17,-189.6 807.17,-201.6 807.17,-201.6 807.17,-207.6 801.17,-213.6 795.17,-213.6"/>
<text text-anchor="start" x="736.92" y="-198" font-family="Times,serif" font-weight="bold" font-size="14.00">tctee_ttcm</text>
<text text-anchor="start" x="743.9" y="-184" font-family="Times,serif" font-size="14.00">[TCTee]</text>
</g>
<!-- tctee_ttcm&#45;&gt;tc_buf -->
<g id="edge3" class="edge" data-name="tctee_ttcm-&gt;tc_buf">

<path fill="none" stroke="black" d="M753.27,-177.31C743.46,-166.5 729.86,-152.77 716,-142.8 709.85,-138.38 703.06,-134.22 696.19,-130.42"/>
<polygon fill="black" stroke="black" points="697.97,-127.4 687.49,-125.83 694.71,-133.59 697.97,-127.4"/>
<text text-anchor="middle" x="763.55" y="-147" font-family="Times,serif" font-size="14.00">tcs_to_buf</text>
</g>
<!-- mlt -->
<g id="node17" class="node" pointer-events="visible" data-name="mlt">

<path fill="#b0e2ff" stroke="black" d="M1043.22,-124.8C1043.22,-124.8 924.78,-124.8 924.78,-124.8 918.78,-124.8 912.78,-118.8 912.78,-112.8 912.78,-112.8 912.78,-100.8 912.78,-100.8 912.78,-94.8 918.78,-88.8 924.78,-88.8 924.78,-88.8 1043.22,-88.8 1043.22,-88.8 1049.22,-88.8 1055.22,-94.8 1055.22,-100.8 1055.22,-100.8 1055.22,-112.8 1055.22,-112.8 1055.22,-118.8 1049.22,-124.8 1043.22,-124.8"/>
<text text-anchor="start" x="973.89" y="-109.2" font-family="Times,serif" font-weight="bold" font-size="14.00">mlt</text>
<text text-anchor="start" x="920.64" y="-95.2" font-family="Times,serif" font-size="14.00">[ModuleLevelTrigger]</text>
</g>
<!-- tctee_ttcm&#45;&gt;mlt -->
<g id="edge2" class="edge" data-name="tctee_ttcm-&gt;mlt">

<path fill="none" stroke="black" d="M780.97,-177.58C790.71,-166.01 805.04,-151.32 820.89,-142.8 845.33,-129.66 874.33,-121.46 901.04,-116.33"/>
<polygon fill="black" stroke="black" points="901.61,-119.78 910.84,-114.58 900.38,-112.89 901.61,-119.78"/>
<text text-anchor="middle" x="849.56" y="-147" font-family="Times,serif" font-size="14.00">tcs_to_mlt</text>
</g>
<!-- tazipper -->
<g id="node3" class="node" pointer-events="visible" data-name="tazipper">

<path fill="#b0e2ff" stroke="black" d="M898.8,-391.2C898.8,-391.2 841.2,-391.2 841.2,-391.2 835.2,-391.2 829.2,-385.2 829.2,-379.2 829.2,-379.2 829.2,-367.2 829.2,-367.2 829.2,-361.2 835.2,-355.2 841.2,-355.2 841.2,-355.2 898.8,-355.2 898.8,-355.2 904.8,-355.2 910.8,-361.2 910.8,-367.2 910.8,-367.2 910.8,-379.2 910.8,-379.2 910.8,-385.2 904.8,-391.2 898.8,-391.2"/>
<text text-anchor="start" x="845.12" y="-375.6" font-family="Times,serif" font-weight="bold" font-size="14.00">tazipper</text>
<text text-anchor="start" x="837.35" y="-361.6" font-family="Times,serif" font-size="14.00">[TAZipper]</text>
</g>
<!-- tcm -->
<g id="node4" class="node" pointer-events="visible" data-name="tcm">

<path fill="#b0e2ff" stroke="black" d="M1035.1,-302.4C1035.1,-302.4 898.9,-302.4 898.9,-302.4 892.9,-302.4 886.9,-296.4 886.9,-290.4 886.9,-290.4 886.9,-278.4 886.9,-278.4 886.9,-272.4 892.9,-266.4 898.9,-266.4 898.9,-266.4 1035.1,-266.4 1035.1,-266.4 1041.1,-266.4 1047.1,-272.4 1047.1,-278.4 1047.1,-278.4 1047.1,-290.4 1047.1,-290.4 1047.1,-296.4 1041.1,-302.4 1035.1,-302.4"/>
<text text-anchor="start" x="955.73" y="-286.8" font-family="Times,serif" font-weight="bold" font-size="14.00">tcm</text>
<text text-anchor="start" x="894.7" y="-272.8" font-family="Times,serif" font-size="14.00">[TriggerCandidateMaker]</text>
</g>
<!-- tazipper&#45;&gt;tcm -->
<g id="edge4" class="edge" data-name="tazipper-&gt;tcm">

<path fill="none" stroke="black" d="M876.3,-355.13C881.05,-344.13 888.46,-330.12 898.48,-320.4 902.91,-316.1 907.98,-312.21 913.31,-308.72"/>
<polygon fill="black" stroke="black" points="915.01,-311.78 921.8,-303.66 911.42,-305.77 915.01,-311.78"/>
<text text-anchor="middle" x="979.26" y="-324.6" font-family="Times,serif" font-size="14.00">tazipper.output_to_tcm.input</text>
</g>
<!-- tctee_chain -->
<g id="node5" class="node" pointer-events="visible" data-name="tctee_chain">

<path fill="#b0e2ff" stroke="black" d="M996.64,-213.6C996.64,-213.6 937.36,-213.6 937.36,-213.6 931.36,-213.6 925.36,-207.6 925.36,-201.6 925.36,-201.6 925.36,-189.6 925.36,-189.6 925.36,-183.6 931.36,-177.6 937.36,-177.6 937.36,-177.6 996.64,-177.6 996.64,-177.6 1002.64,-177.6 1008.64,-183.6 1008.64,-189.6 1008.64,-189.6 1008.64,-201.6 1008.64,-201.6 1008.64,-207.6 1002.64,-213.6 996.64,-213.6"/>
<text text-anchor="start" x="933.18" y="-198" font-family="Times,serif" font-weight="bold" font-size="14.00">tctee_chain</text>
<text text-anchor="start" x="942.9" y="-184" font-family="Times,serif" font-size="14.00">[TCTee]</text>
</g>
<!-- tcm&#45;&gt;tctee_chain -->
<g id="edge5" class="edge" data-name="tcm-&gt;tctee_chain">

<path fill="none" stroke="black" d="M967,-266.25C967,-254.56 967,-238.79 967,-225.22"/>
<polygon fill="black" stroke="black" points="970.5,-225.52 967,-215.52 963.5,-225.52 970.5,-225.52"/>
<text text-anchor="middle" x="1000.05" y="-235.8" font-family="Times,serif" font-size="14.00">chain_input</text>
</g>
<!-- tctee_chain&#45;&gt;tc_buf -->
<g id="edge7" class="edge" data-name="tctee_chain-&gt;tc_buf">

<path fill="none" stroke="black" d="M938.57,-177.27C914.45,-162.63 883.24,-143.86 880,-142.8 804.88,-118.15 778.02,-140.37 697.36,-124.9"/>
<polygon fill="black" stroke="black" points="698.14,-121.49 687.64,-122.89 696.72,-128.34 698.14,-121.49"/>
<text text-anchor="middle" x="937.55" y="-147" font-family="Times,serif" font-size="14.00">tcs_to_buf</text>
</g>
<!-- tctee_chain&#45;&gt;mlt -->
<g id="edge6" class="edge" data-name="tctee_chain-&gt;mlt">

<path fill="none" stroke="black" d="M970.36,-177.45C972.65,-165.76 975.74,-149.99 978.4,-136.42"/>
<polygon fill="black" stroke="black" points="981.81,-137.18 980.3,-126.7 974.94,-135.84 981.81,-137.18"/>
<text text-anchor="middle" x="1006.56" y="-147" font-family="Times,serif" font-size="14.00">tcs_to_mlt</text>
</g>
<!-- channelfilter_tplink0 -->
<g id="node6" class="node" pointer-events="visible" data-name="channelfilter_tplink0">

<path fill="#b0e2ff" stroke="black" d="M292.01,-835.2C292.01,-835.2 173.99,-835.2 173.99,-835.2 167.99,-835.2 161.99,-829.2 161.99,-823.2 161.99,-823.2 161.99,-811.2 161.99,-811.2 161.99,-805.2 167.99,-799.2 173.99,-799.2 173.99,-799.2 292.01,-799.2 292.01,-799.2 298.01,-799.2 304.01,-805.2 304.01,-811.2 304.01,-811.2 304.01,-823.2 304.01,-823.2 304.01,-829.2 298.01,-835.2 292.01,-835.2"/>
<text text-anchor="start" x="170" y="-819.6" font-family="Times,serif" font-weight="bold" font-size="14.00">channelfilter_tplink0</text>
<text text-anchor="start" x="181.68" y="-805.6" font-family="Times,serif" font-size="14.00">[TPChannelFilter]</text>
</g>
<!-- tpsettee_tplink0 -->
<g id="node7" class="node" pointer-events="visible" data-name="tpsettee_tplink0">

<path fill="#b0e2ff" stroke="black" d="M276.66,-746.4C276.66,-746.4 189.34,-746.4 189.34,-746.4 183.34,-746.4 177.34,-740.4 177.34,-734.4 177.34,-734.4 177.34,-722.4 177.34,-722.4 177.34,-716.4 183.34,-710.4 189.34,-710.4 189.34,-710.4 276.66,-710.4 276.66,-710.4 282.66,-710.4 288.66,-716.4 288.66,-722.4 288.66,-722.4 288.66,-734.4 288.66,-734.4 288.66,-740.4 282.66,-746.4 276.66,-746.4"/>
<text text-anchor="start" x="185.17" y="-730.8" font-family="Times,serif" font-weight="bold" font-size="14.00">tpsettee_tplink0</text>
<text text-anchor="start" x="200.73" y="-716.8" font-family="Times,serif" font-size="14.00">[TPSetTee]</text>
</g>
<!-- channelfilter_tplink0&#45;&gt;tpsettee_tplink0 -->
<g id="edge8" class="edge" data-name="channelfilter_tplink0-&gt;tpsettee_tplink0">

<path fill="none" stroke="black" d="M233,-799.05C233,-787.36 233,-771.59 233,-758.02"/>
<polygon fill="black" stroke="black" points="236.5,-758.32 233,-748.32 229.5,-758.32 236.5,-758.32"/>
<text text-anchor="middle" x="395.14" y="-768.6" font-family="Times,serif" font-size="14.00">channelfilter_tplink0.tpset_sink_to_tpsettee_tplink0.input</text>
</g>
<!-- buf_tplink0 -->
<g id="node8" class="node" pointer-events="visible" data-name="buf_tplink0">

<path fill="#b0e2ff" stroke="black" d="M444.03,-124.8C444.03,-124.8 381.97,-124.8 381.97,-124.8 375.97,-124.8 369.97,-118.8 369.97,-112.8 369.97,-112.8 369.97,-100.8 369.97,-100.8 369.97,-94.8 375.97,-88.8 381.97,-88.8 381.97,-88.8 444.03,-88.8 444.03,-88.8 450.03,-88.8 456.03,-94.8 456.03,-100.8 456.03,-100.8 456.03,-112.8 456.03,-112.8 456.03,-118.8 450.03,-124.8 444.03,-124.8"/>
<text text-anchor="start" x="377.98" y="-109.2" font-family="Times,serif" font-weight="bold" font-size="14.00">buf_tplink0</text>
<text text-anchor="start" x="381.9" y="-95.2" font-family="Times,serif" font-size="14.00">[TPBuffer]</text>
</g>
<!-- tpsettee_tplink0&#45;&gt;buf_tplink0 -->
<g id="edge10" class="edge" data-name="tpsettee_tplink0-&gt;buf_tplink0">

<path fill="none" stroke="black" d="M176.89,-718C107.95,-704.83 0,-678.21 0,-640.6 0,-640.6 0,-640.6 0,-194.6 0,-122.24 245.84,-109.87 358.17,-107.99"/>
<polygon fill="black" stroke="black" points="358.12,-111.49 368.07,-107.85 358.02,-104.49 358.12,-111.49"/>
<text text-anchor="middle" x="149.7" y="-413.4" font-family="Times,serif" font-size="14.00">tpsettee_tplink0.output2_to_buf_tplink0.tpset_source</text>
</g>
<!-- zip_6 -->
<g id="node12" class="node" pointer-events="visible" data-name="zip_6">

<path fill="#b0e2ff" stroke="black" d="M599.48,-657.6C599.48,-657.6 544.52,-657.6 544.52,-657.6 538.52,-657.6 532.52,-651.6 532.52,-645.6 532.52,-645.6 532.52,-633.6 532.52,-633.6 532.52,-627.6 538.52,-621.6 544.52,-621.6 544.52,-621.6 599.48,-621.6 599.48,-621.6 605.48,-621.6 611.48,-627.6 611.48,-633.6 611.48,-633.6 611.48,-645.6 611.48,-645.6 611.48,-651.6 605.48,-657.6 599.48,-657.6"/>
<text text-anchor="start" x="556.06" y="-642" font-family="Times,serif" font-weight="bold" font-size="14.00">zip_6</text>
<text text-anchor="start" x="540.51" y="-628" font-family="Times,serif" font-size="14.00">[TPZipper]</text>
</g>
<!-- tpsettee_tplink0&#45;&gt;zip_6 -->
<g id="edge9" class="edge" data-name="tpsettee_tplink0-&gt;zip_6">

<path fill="none" stroke="black" d="M288.98,-713.07C353.6,-696.52 458.96,-669.54 521.27,-653.59"/>
<polygon fill="black" stroke="black" points="522.1,-656.99 530.92,-651.12 520.36,-650.21 522.1,-656.99"/>
<text text-anchor="middle" x="459.22" y="-679.8" font-family="Times,serif" font-size="14.00">6_tpset_q</text>
</g>
<!-- buf_tplink0&#45;&gt;FragmentReceiver -->
<g id="edge11" class="edge" data-name="buf_tplink0-&gt;FragmentReceiver">

<path fill="none" stroke="orange" stroke-dasharray="5,2" d="M433.61,-88.51C447.65,-77.42 467.08,-63.38 486.02,-54 508.56,-42.84 535.4,-34.3 557.16,-28.45"/>
<polygon fill="orange" stroke="orange" points="557.76,-31.91 566.56,-26.02 556,-25.14 557.76,-31.91"/>
<text text-anchor="middle" x="513.99" y="-58.2" font-family="Times,serif" font-size="14.00">fragments</text>
</g>
<!-- channelfilter_tplink1 -->
<g id="node9" class="node" pointer-events="visible" data-name="channelfilter_tplink1">

<path fill="#b0e2ff" stroke="black" d="M872.01,-835.2C872.01,-835.2 753.99,-835.2 753.99,-835.2 747.99,-835.2 741.99,-829.2 741.99,-823.2 741.99,-823.2 741.99,-811.2 741.99,-811.2 741.99,-805.2 747.99,-799.2 753.99,-799.2 753.99,-799.2 872.01,-799.2 872.01,-799.2 878.01,-799.2 884.01,-805.2 884.01,-811.2 884.01,-811.2 884.01,-823.2 884.01,-823.2 884.01,-829.2 878.01,-835.2 872.01,-835.2"/>
<text text-anchor="start" x="750" y="-819.6" font-family="Times,serif" font-weight="bold" font-size="14.00">channelfilter_tplink1</text>
<text text-anchor="start" x="761.68" y="-805.6" font-family="Times,serif" font-size="14.00">[TPChannelFilter]</text>
</g>
<!-- tpsettee_tplink1 -->
<g id="node10" class="node" pointer-events="visible" data-name="tpsettee_tplink1">

<path fill="#b0e2ff" stroke="black" d="M856.66,-746.4C856.66,-746.4 769.34,-746.4 769.34,-746.4 763.34,-746.4 757.34,-740.4 757.34,-734.4 757.34,-734.4 757.34,-722.4 757.34,-722.4 757.34,-716.4 763.34,-710.4 769.34,-710.4 769.34,-710.4 856.66,-710.4 856.66,-710.4 862.66,-710.4 868.66,-716.4 868.66,-722.4 868.66,-722.4 868.66,-734.4 868.66,-734.4 868.66,-740.4 862.66,-746.4 856.66,-746.4"/>
<text text-anchor="start" x="765.17" y="-730.8" font-family="Times,serif" font-weight="bold" font-size="14.00">tpsettee_tplink1</text>
<text text-anchor="start" x="780.73" y="-716.8" font-family="Times,serif" font-size="14.00">[TPSetTee]</text>
</g>
<!-- channelfilter_tplink1&#45;&gt;tpsettee_tplink1 -->
<g id="edge12" class="edge" data-name="channelfilter_tplink1-&gt;tpsettee_tplink1">

<path fill="none" stroke="black" d="M813,-799.05C813,-787.36 813,-771.59 813,-758.02"/>
<polygon fill="black" stroke="black" points="816.5,-758.32 813,-748.32 809.5,-758.32 816.5,-758.32"/>
<text text-anchor="middle" x="975.14" y="-768.6" font-family="Times,serif" font-size="14.00">channelfilter_tplink1.tpset_sink_to_tpsettee_tplink1.input</text>
</g>
<!-- buf_tplink1 -->
<g id="node11" class="node" pointer-events="visible" data-name="buf_tplink1">

<path fill="#b0e2ff" stroke="black" d="M778.03,-124.8C778.03,-124.8 715.97,-124.8 715.97,-124.8 709.97,-124.8 703.97,-118.8 703.97,-112.8 703.97,-112.8 703.97,-100.8 703.97,-100.8 703.97,-94.8 709.97,-88.8 715.97,-88.8 715.97,-88.8 778.03,-88.8 778.03,-88.8 784.03,-88.8 790.03,-94.8 790.03,-100.8 790.03,-100.8 790.03,-112.8 790.03,-112.8 790.03,-118.8 784.03,-124.8 778.03,-124.8"/>
<text text-anchor="start" x="711.98" y="-109.2" font-family="Times,serif" font-weight="bold" font-size="14.00">buf_tplink1</text>
<text text-anchor="start" x="715.9" y="-95.2" font-family="Times,serif" font-size="14.00">[TPBuffer]</text>
</g>
<!-- tpsettee_tplink1&#45;&gt;buf_tplink1 -->
<g id="edge14" class="edge" data-name="tpsettee_tplink1-&gt;buf_tplink1">

<path fill="none" stroke="black" d="M868.88,-720.35C945.83,-709.05 1075,-683.67 1075,-640.6 1075,-640.6 1075,-640.6 1075,-194.6 1075,-166.82 1063.72,-157.27 1040,-142.8 1034.95,-139.72 884.88,-122.89 801.53,-113.74"/>
<polygon fill="black" stroke="black" points="802.06,-110.27 791.73,-112.66 801.29,-117.23 802.06,-110.27"/>
<text text-anchor="middle" x="1224.7" y="-413.4" font-family="Times,serif" font-size="14.00">tpsettee_tplink1.output2_to_buf_tplink1.tpset_source</text>
</g>
<!-- tpsettee_tplink1&#45;&gt;zip_6 -->
<g id="edge13" class="edge" data-name="tpsettee_tplink1-&gt;zip_6">

<path fill="none" stroke="black" d="M764.52,-709.94C723.26,-695.08 664.21,-673.81 622.4,-658.75"/>
<polygon fill="black" stroke="black" points="623.65,-655.48 613.06,-655.39 621.28,-662.07 623.65,-655.48"/>
<text text-anchor="middle" x="741.22" y="-679.8" font-family="Times,serif" font-size="14.00">6_tpset_q</text>
</g>
<!-- buf_tplink1&#45;&gt;FragmentReceiver -->
<g id="edge15" class="edge" data-name="buf_tplink1-&gt;FragmentReceiver">

<path fill="none" stroke="orange" stroke-dasharray="5,2" d="M729.77,-88.5C718.16,-77.54 702.07,-63.66 686,-54 670.66,-44.78 652.45,-37.07 636.59,-31.25"/>
<polygon fill="orange" stroke="orange" points="638.07,-28.06 627.47,-28.04 635.74,-34.67 638.07,-28.06"/>
<text text-anchor="middle" x="736.99" y="-58.2" font-family="Times,serif" font-size="14.00">fragments</text>
</g>
<!-- channelfilter_tplink2 -->

<!-- tpsettee_tplink2 -->

<!-- channelfilter_tplink2&#45;&gt;tpsettee_tplink2 -->

<!-- buf_tplink2 -->

<!-- tpsettee_tplink2&#45;&gt;buf_tplink2 -->

<!-- tpsettee_tplink2&#45;&gt;zip_6 -->

<!-- buf_tplink2&#45;&gt;FragmentReceiver -->

<!-- channelfilter_tplink3 -->

<!-- tpsettee_tplink3 -->

<!-- channelfilter_tplink3&#45;&gt;tpsettee_tplink3 -->

<!-- buf_tplink3 -->

<!-- tpsettee_tplink3&#45;&gt;buf_tplink3 -->

<!-- tpsettee_tplink3&#45;&gt;zip_6 -->

<!-- buf_tplink3&#45;&gt;FragmentReceiver -->

<!-- channelfilter_tplink4 -->

<!-- tpsettee_tplink4 -->

<!-- channelfilter_tplink4&#45;&gt;tpsettee_tplink4 -->

<!-- buf_tplink4 -->

<!-- tpsettee_tplink4&#45;&gt;buf_tplink4 -->

<!-- tpsettee_tplink4&#45;&gt;zip_6 -->

<!-- buf_tplink4&#45;&gt;FragmentReceiver -->

<!-- channelfilter_tplink5 -->

<!-- tpsettee_tplink5 -->

<!-- channelfilter_tplink5&#45;&gt;tpsettee_tplink5 -->

<!-- buf_tplink5 -->

<g id="node13" class="node" pointer-events="visible" data-name="tam_6" data-comment="buf_tplink5">

<path fill="#b0e2ff" stroke="black" d="M634.72,-568.8C634.72,-568.8 509.28,-568.8 509.28,-568.8 503.28,-568.8 497.28,-562.8 497.28,-556.8 497.28,-556.8 497.28,-544.8 497.28,-544.8 497.28,-538.8 503.28,-532.8 509.28,-532.8 509.28,-532.8 634.72,-532.8 634.72,-532.8 640.72,-532.8 646.72,-538.8 646.72,-544.8 646.72,-544.8 646.72,-556.8 646.72,-556.8 646.72,-562.8 640.72,-568.8 634.72,-568.8"/>
<text text-anchor="start" x="553.34" y="-553.2" font-family="Times,serif" font-weight="bold" font-size="14.00">tam_6</text>
<text text-anchor="start" x="505.14" y="-539.2" font-family="Times,serif" font-size="14.00">[TriggerActivityMaker]</text>
</g><g id="edge16" class="edge" data-name="zip_6-&gt;tam_6" data-comment="buf_tplink5">

<path fill="none" stroke="black" d="M572,-621.45C572,-609.76 572,-593.99 572,-580.42"/>
<polygon fill="black" stroke="black" points="575.5,-580.72 572,-570.72 568.5,-580.72 575.5,-580.72"/>
<text text-anchor="middle" x="653.27" y="-591" font-family="Times,serif" font-size="14.00">zip_6.output_to_tam_6.input</text>
</g><g id="node14" class="node" pointer-events="visible" data-name="tasettee_region_6" data-comment="buf_tplink5">

<path fill="#b0e2ff" stroke="black" d="M620.18,-480C620.18,-480 523.82,-480 523.82,-480 517.82,-480 511.82,-474 511.82,-468 511.82,-468 511.82,-456 511.82,-456 511.82,-450 517.82,-444 523.82,-444 523.82,-444 620.18,-444 620.18,-444 626.18,-444 632.18,-450 632.18,-456 632.18,-456 632.18,-468 632.18,-468 632.18,-474 626.18,-480 620.18,-480"/>
<text text-anchor="start" x="519.91" y="-464.4" font-family="Times,serif" font-weight="bold" font-size="14.00">tasettee_region_6</text>
<text text-anchor="start" x="538.57" y="-450.4" font-family="Times,serif" font-size="14.00">[TASetTee]</text>
</g><g id="edge17" class="edge" data-name="tam_6-&gt;tasettee_region_6" data-comment="buf_tplink5">

<path fill="none" stroke="black" d="M572,-532.65C572,-520.96 572,-505.19 572,-491.62"/>
<polygon fill="black" stroke="black" points="575.5,-491.92 572,-481.92 568.5,-491.92 575.5,-491.92"/>
<text text-anchor="middle" x="687.09" y="-502.2" font-family="Times,serif" font-size="14.00">tam_6.output_to_tasettee_region_6.input</text>
</g><g id="edge18" class="edge" data-name="tasettee_region_6-&gt;tazipper" data-comment="buf_tplink5">

<path fill="none" stroke="black" d="M631.95,-443.54C686.42,-427.67 765.97,-404.5 817.86,-389.39"/>
<polygon fill="black" stroke="black" points="818.74,-392.78 827.36,-386.62 816.78,-386.06 818.74,-392.78"/>
<text text-anchor="middle" x="789.76" y="-413.4" font-family="Times,serif" font-size="14.00">tas_to_tazipper</text>
</g><g id="node15" class="node" pointer-events="visible" data-name="ta_buf_region_6" data-comment="buf_tplink5">

<path fill="#b0e2ff" stroke="black" d="M576,-124.8C576,-124.8 486,-124.8 486,-124.8 480,-124.8 474,-118.8 474,-112.8 474,-112.8 474,-100.8 474,-100.8 474,-94.8 480,-88.8 486,-88.8 486,-88.8 576,-88.8 576,-88.8 582,-88.8 588,-94.8 588,-100.8 588,-100.8 588,-112.8 588,-112.8 588,-118.8 582,-124.8 576,-124.8"/>
<text text-anchor="start" x="482" y="-109.2" font-family="Times,serif" font-weight="bold" font-size="14.00">ta_buf_region_6</text>
<text text-anchor="start" x="498.74" y="-95.2" font-family="Times,serif" font-size="14.00">[TABuffer]</text>
</g><g id="edge19" class="edge" data-name="tasettee_region_6-&gt;ta_buf_region_6" data-comment="buf_tplink5">

<path fill="none" stroke="black" d="M511.51,-452.95C435.25,-441.07 314,-415.67 314,-374.2 314,-374.2 314,-374.2 314,-194.6 314,-178.32 399.26,-148.35 462.9,-128.24"/>
<polygon fill="black" stroke="black" points="463.76,-131.64 472.26,-125.31 461.67,-124.96 463.76,-131.64"/>
<text text-anchor="middle" x="481.57" y="-280.2" font-family="Times,serif" font-size="14.00">tasettee_region_6.output2_to_ta_buf_region_6.taset_source</text>
</g><g id="edge20" class="edge" data-name="ta_buf_region_6-&gt;FragmentReceiver" data-comment="buf_tplink5">

<path fill="none" stroke="orange" stroke-dasharray="5,2" d="M537.63,-88.47C542.16,-77.9 548.83,-64.46 557.02,-54 560.84,-49.12 565.43,-44.42 570.14,-40.14"/>
<polygon fill="orange" stroke="orange" points="572.1,-43.07 577.43,-33.91 567.55,-37.74 572.1,-43.07"/>
<text text-anchor="middle" x="584.99" y="-58.2" font-family="Times,serif" font-size="14.00">fragments</text>
</g><g id="node16" class="node" pointer-events="visible" data-name="ttcm" data-comment="buf_tplink5">

<path fill="#b0e2ff" stroke="black" d="M856.82,-302.4C856.82,-302.4 679.18,-302.4 679.18,-302.4 673.18,-302.4 667.18,-296.4 667.18,-290.4 667.18,-290.4 667.18,-278.4 667.18,-278.4 667.18,-272.4 673.18,-266.4 679.18,-266.4 679.18,-266.4 856.82,-266.4 856.82,-266.4 862.82,-266.4 868.82,-272.4 868.82,-278.4 868.82,-278.4 868.82,-290.4 868.82,-290.4 868.82,-296.4 862.82,-302.4 856.82,-302.4"/>
<text text-anchor="start" x="754.4" y="-286.8" font-family="Times,serif" font-weight="bold" font-size="14.00">ttcm</text>
<text text-anchor="start" x="675.09" y="-272.8" font-family="Times,serif" font-size="14.00">[TimingTriggerCandidateMaker]</text>
</g><g id="edge21" class="edge" data-name="ttcm-&gt;tctee_ttcm" data-comment="buf_tplink5">

<path fill="none" stroke="black" d="M768,-266.25C768,-254.56 768,-238.79 768,-225.22"/>
<polygon fill="black" stroke="black" points="771.5,-225.52 768,-215.52 764.5,-225.52 771.5,-225.52"/>
<text text-anchor="middle" x="798.33" y="-235.8" font-family="Times,serif" font-size="14.00">ttcm_input</text>
</g><g id="node19" class="node" pointer-events="visible" data-name="td_to_dfo" data-comment="buf_tplink5">

<polygon fill="none" stroke="blue" points="1019.44,-36 948.56,-36 948.56,0 1019.44,0 1019.44,-36"/>
<text text-anchor="middle" x="984" y="-13.8" font-family="Times,serif" font-size="14.00">td_to_dfo</text>
</g><g id="edge22" class="edge" data-name="mlt-&gt;td_to_dfo" data-comment="buf_tplink5">

<path fill="none" stroke="blue" stroke-dasharray="5,2" d="M984,-88.65C984,-76.96 984,-61.19 984,-47.62"/>
<polygon fill="blue" stroke="blue" points="987.5,-47.92 984,-37.92 980.5,-47.92 987.5,-47.92"/>
<text text-anchor="middle" x="1010.83" y="-58.2" font-family="Times,serif" font-size="14.00">td_output</text>
</g><g id="node18" class="node" pointer-events="visible" data-name="hsievents" data-comment="buf_tplink5">

<polygon fill="none" stroke="red" points="802.1,-391.2 733.9,-391.2 733.9,-355.2 802.1,-355.2 802.1,-391.2"/>
<text text-anchor="middle" x="768" y="-369" font-family="Times,serif" font-size="14.00">hsievents</text>
</g><g id="edge23" class="edge" data-name="hsievents-&gt;ttcm" data-comment="buf_tplink5">

<path fill="none" stroke="red" stroke-dasharray="5,2" d="M768,-355.05C768,-343.36 768,-327.59 768,-314.02"/>
<polygon fill="red" stroke="red" points="771.5,-314.32 768,-304.32 764.5,-314.32 771.5,-314.32"/>
<text text-anchor="middle" x="794.06" y="-324.6" font-family="Times,serif" font-size="14.00">hsi_input</text>
</g><g id="node20" class="node" pointer-events="visible" data-name="df_busy_signal" data-comment="buf_tplink5">

<polygon fill="none" stroke="red" points="1204.55,-213.6 1103.45,-213.6 1103.45,-177.6 1204.55,-177.6 1204.55,-213.6"/>
<text text-anchor="middle" x="1154" y="-191.4" font-family="Times,serif" font-size="14.00">df_busy_signal</text>
</g><g id="edge24" class="edge" data-name="df_busy_signal-&gt;mlt" data-comment="buf_tplink5">

<path fill="none" stroke="red" stroke-dasharray="5,2" d="M1135.91,-177.3C1123.51,-166.2 1106.25,-152.16 1089,-142.8 1079.6,-137.7 1069.32,-133.16 1059,-129.18"/>
<polygon fill="red" stroke="red" points="1060.26,-125.92 1049.67,-125.76 1057.85,-132.49 1060.26,-125.92"/>
<text text-anchor="middle" x="1162" y="-147" font-family="Times,serif" font-size="14.00">dfo_inhibit_input</text>
</g><g id="node21" class="node" pointer-events="visible" data-name="tpsets_runp04_srv_026_0_link4" data-comment="buf_tplink5">

<polygon fill="none" stroke="red" points="331.44,-924 134.56,-924 134.56,-888 331.44,-888 331.44,-924"/>
<text text-anchor="middle" x="233" y="-901.8" font-family="Times,serif" font-size="14.00">tpsets_runp04_srv_026_0_link4</text>
</g><g id="edge25" class="edge" data-name="tpsets_runp04_srv_026_0_link4-&gt;channelfilter_tplink0" data-comment="buf_tplink5">

<path fill="none" stroke="red" stroke-dasharray="5,2" d="M233,-887.85C233,-876.16 233,-860.39 233,-846.82"/>
<polygon fill="red" stroke="red" points="236.5,-847.12 233,-837.12 229.5,-847.12 236.5,-847.12"/>
<text text-anchor="middle" x="267.99" y="-857.4" font-family="Times,serif" font-size="14.00">tpset_source</text>
</g><g id="node22" class="node" pointer-events="visible" data-name="tpsets_runp04_srv_026_0_link7" data-comment="buf_tplink5">

<polygon fill="none" stroke="red" points="911.44,-924 714.56,-924 714.56,-888 911.44,-888 911.44,-924"/>
<text text-anchor="middle" x="813" y="-901.8" font-family="Times,serif" font-size="14.00">tpsets_runp04_srv_026_0_link7</text>
</g><g id="edge26" class="edge" data-name="tpsets_runp04_srv_026_0_link7-&gt;channelfilter_tplink1" data-comment="buf_tplink5">

<path fill="none" stroke="red" stroke-dasharray="5,2" d="M813,-887.85C813,-876.16 813,-860.39 813,-846.82"/>
<polygon fill="red" stroke="red" points="816.5,-847.12 813,-837.12 809.5,-847.12 816.5,-847.12"/>
<text text-anchor="middle" x="847.99" y="-857.4" font-family="Times,serif" font-size="14.00">tpset_source</text>
</g><g id="node23" class="node" pointer-events="visible" data-name="TriggerRecordBuilder" data-comment="buf_tplink5">

<ellipse fill="gold" stroke="gold" stroke-dasharray="5,2" cx="565" cy="-195.6" rx="51.01" ry="18"/>
<text text-anchor="middle" x="565" y="-191.4" font-family="Times,serif" font-size="14.00">from TRB</text>
</g><g id="edge27" class="edge" data-name="TriggerRecordBuilder-&gt;tc_buf" data-comment="buf_tplink5">

<path fill="none" stroke="gold" stroke-dasharray="5,2" d="M574.91,-177.78C581.59,-167.16 591.02,-153.46 601.12,-142.8 604.58,-139.15 608.44,-135.57 612.4,-132.18"/>
<polygon fill="gold" stroke="gold" points="614.39,-135.06 619.94,-126.04 609.97,-129.63 614.39,-135.06"/>
<text text-anchor="middle" x="623.94" y="-147" font-family="Times,serif" font-size="14.00">requests</text>
</g><g id="edge28" class="edge" data-name="TriggerRecordBuilder-&gt;buf_tplink0" data-comment="buf_tplink5">

<path fill="none" stroke="gold" stroke-dasharray="5,2" d="M528.82,-182.7C512.79,-176.75 494,-168.85 478.12,-159.6 464.92,-151.91 451.52,-141.74 440.33,-132.44"/>
<polygon fill="gold" stroke="gold" points="442.91,-130.04 433.03,-126.22 438.37,-135.37 442.91,-130.04"/>
<text text-anchor="middle" x="500.94" y="-147" font-family="Times,serif" font-size="14.00">requests</text>
</g><g id="edge29" class="edge" data-name="TriggerRecordBuilder-&gt;buf_tplink1" data-comment="buf_tplink5">

<path fill="none" stroke="gold" stroke-dasharray="5,2" d="M600.53,-182.29C615.43,-176.41 632.59,-168.67 647,-159.6 656.57,-153.57 656.57,-148.85 666.12,-142.8 674.58,-137.45 683.99,-132.54 693.32,-128.21"/>
<polygon fill="gold" stroke="gold" points="694.66,-131.45 702.37,-124.19 691.81,-125.05 694.66,-131.45"/>
<text text-anchor="middle" x="688.94" y="-147" font-family="Times,serif" font-size="14.00">requests</text>
</g><g id="edge30" class="edge" data-name="TriggerRecordBuilder-&gt;ta_buf_region_6" data-comment="buf_tplink5">

<path fill="none" stroke="gold" stroke-dasharray="5,2" d="M545.38,-178.65C540.09,-173.22 535.03,-166.7 532.12,-159.6 529.22,-152.5 528.13,-144.37 527.96,-136.7"/>
<polygon fill="gold" stroke="gold" points="531.46,-136.85 528.29,-126.74 524.46,-136.62 531.46,-136.85"/>
<text text-anchor="middle" x="554.94" y="-147" font-family="Times,serif" font-size="14.00">requests</text>
</g></g>
</svg>